<?xml version="1.0" encoding="UTF-8" standalone="no"?>
<svg
   xmlns:dc="http://purl.org/dc/elements/1.1/"
   xmlns:cc="http://creativecommons.org/ns#"
   xmlns:rdf="http://www.w3.org/1999/02/22-rdf-syntax-ns#"
   xmlns:svg="http://www.w3.org/2000/svg"
   xmlns="http://www.w3.org/2000/svg"
   xmlns:sodipodi="http://sodipodi.sourceforge.net/DTD/sodipodi-0.dtd"
   xmlns:inkscape="http://www.inkscape.org/namespaces/inkscape"
   class="icon"
   height="1333"
   viewBox="0 0 1000 2666"
   version="1.1"
   id="svg12013"
   sodipodi:docname="graad2.svg"
   width="1000"
   inkscape:version="0.92.2 (5c3e80d, 2017-08-06)">
  <metadata
     id="metadata12019">
    <rdf:RDF>
      <cc:Work
         rdf:about="">
        <dc:format>image/svg+xml</dc:format>
        <dc:type
           rdf:resource="http://purl.org/dc/dcmitype/StillImage" />
        <dc:title></dc:title>
      </cc:Work>
    </rdf:RDF>
  </metadata>
  <defs
     id="defs12017">
    <pattern
       y="0"
       x="0"
       height="6"
       width="6"
       patternUnits="userSpaceOnUse"
       id="EMFhbasepattern" />
  </defs>
  <sodipodi:namedview
     pagecolor="#ffffff"
     bordercolor="#666666"
     borderopacity="1"
     objecttolerance="10"
     gridtolerance="10"
     guidetolerance="10"
     inkscape:pageopacity="0"
     inkscape:pageshadow="2"
     inkscape:window-width="1366"
     inkscape:window-height="745"
     id="namedview12015"
     showgrid="false"
     inkscape:zoom="0.37109375"
     inkscape:cx="477.45215"
     inkscape:cy="715.40332"
     inkscape:window-x="-8"
     inkscape:window-y="-8"
     inkscape:window-maximized="1"
     inkscape:current-layer="svg12013" />
  <g
     aria-label="КОМПЛЕКСНАЯ
СИСТЕМА КОНТРОЛЯ
ГРААД"
     style="font-style:normal;font-variant:normal;font-weight:normal;font-stretch:normal;font-size:108.73793793px;line-height:1.25;font-family:Orbitron;-inkscape-font-specification:Orbitron;text-align:center;letter-spacing:0px;word-spacing:0px;text-anchor:middle;fill:#e9e9e9;fill-opacity:0.90588235;stroke:none;stroke-width:1.27427268"
     id="text6381">
    <path
       d="m 102.34777,1239.1462 h 11.30874 l -32.730115,39.1456 32.838855,39.1457 H 102.34777 L 73.206001,1282.7501 H 47.9788 v 34.6874 h -8.916511 v -78.2913 H 47.9788 v 34.6874 h 25.227201 z"
       style="text-align:center;text-anchor:middle;fill:#e9e9e9;fill-opacity:0.90588235;stroke-width:1.27427268"
       id="path6387" />
    <path
       d="m 136.6376,1239.1462 h 52.19421 q 5.43689,0 9.24272,3.8058 3.80583,3.8058 3.80583,9.2427 v 52.1942 q 0,5.4369 -3.80583,9.2428 -3.80583,3.8058 -9.24272,3.8058 H 136.6376 q -5.4369,0 -9.24273,-3.8058 -3.80583,-3.8059 -3.80583,-9.2428 v -52.1942 q 0,-5.4369 3.80583,-9.2427 3.80583,-3.8058 9.24273,-3.8058 z m 0,69.4835 h 52.19421 q 1.7398,0 2.93592,-1.1961 1.30486,-1.3048 1.30486,-3.0447 v -52.1942 q 0,-1.7398 -1.30486,-2.9359 -1.19612,-1.3048 -2.93592,-1.3048 H 136.6376 q -1.73981,0 -3.04466,1.3048 -1.19612,1.1961 -1.19612,2.9359 v 52.1942 q 0,1.7399 1.19612,3.0447 1.30485,1.1961 3.04466,1.1961 z"
       style="text-align:center;text-anchor:middle;fill:#e9e9e9;fill-opacity:0.90588235;stroke-width:1.27427268"
       id="path6389" />
    <path
       d="m 256.52117,1277.8569 32.51264,-38.7107 h 12.06992 v 78.2913 h -8.80778 v -68.2874 l -35.77478,42.5165 -35.77478,-42.5165 v 68.2874 h -8.80777 v -78.2913 h 12.06991 z"
       style="text-align:center;text-anchor:middle;fill:#e9e9e9;fill-opacity:0.90588235;stroke-width:1.27427268"
       id="path6391" />
    <path
       d="m 389.41082,1239.1462 v 78.2913 h -8.91651 v -69.3748 h -60.56703 v 69.3748 h -8.80777 v -78.2913 z"
       style="text-align:center;text-anchor:middle;fill:#e9e9e9;fill-opacity:0.90588235;stroke-width:1.27427268"
       id="path6393" />
    <path
       d="m 470.90991,1239.1462 v 78.2913 h -8.91651 v -69.3748 h -27.18448 q -1.73981,0.1087 -2.71845,1.1961 -0.8699,1.0874 -1.52233,3.0447 l -22.18254,65.134 h -8.91651 l 22.18254,-65.134 q 1.95728,-5.6544 4.78447,-9.2427 2.93592,-3.5884 8.37282,-3.9146 z"
       style="text-align:center;text-anchor:middle;fill:#e9e9e9;fill-opacity:0.90588235;stroke-width:1.27427268"
       id="path6395" />
    <path
       d="m 552.25098,1239.1462 v 8.8078 h -62.63305 v 25.8796 h 50.34566 v 8.9165 h -50.34566 v 25.8796 h 62.63305 v 8.8078 h -71.44083 v -78.2913 z"
       style="text-align:center;text-anchor:middle;fill:#e9e9e9;fill-opacity:0.90588235;stroke-width:1.27427268"
       id="path6397" />
    <path
       d="m 625.4367,1239.1462 h 11.30874 l -32.73012,39.1456 32.83886,39.1457 H 625.4367 l -29.14177,-34.6874 h -25.2272 v 34.6874 h -8.91651 v -78.2913 h 8.91651 v 34.6874 h 25.2272 z"
       style="text-align:center;text-anchor:middle;fill:#e9e9e9;fill-opacity:0.90588235;stroke-width:1.27427268"
       id="path6399" />
    <path
       d="m 724.96933,1247.954 h -65.24277 q -1.7398,0 -3.04466,1.3048 -1.19612,1.1961 -1.19612,2.9359 v 52.1942 q 0,1.7399 1.19612,3.0447 1.30486,1.1961 3.04466,1.1961 h 65.24277 v 8.8078 h -65.24277 q -5.43689,0 -9.24272,-3.8058 -3.80583,-3.8059 -3.80583,-9.2428 v -52.1942 q 0,-5.4369 3.80583,-9.2427 3.80583,-3.8058 9.24272,-3.8058 h 65.24277 z"
       style="text-align:center;text-anchor:middle;fill:#e9e9e9;fill-opacity:0.90588235;stroke-width:1.27427268"
       id="path6401" />
    <path
       d="m 804.40236,1239.1462 h 8.91651 v 78.2913 h -8.91651 v -34.6874 h -60.56703 v 34.6874 h -8.80777 v -78.2913 h 8.80777 v 34.6874 h 60.56703 z"
       style="text-align:center;text-anchor:middle;fill:#e9e9e9;fill-opacity:0.90588235;stroke-width:1.27427268"
       id="path6403" />
    <path
       d="m 836.42566,1239.1462 h 52.19421 q 5.4369,0 9.24273,3.8058 3.80582,3.8058 3.80582,9.2427 v 65.2428 h -8.80777 v -28.5981 h -60.67577 v 28.5981 h -8.80777 v -65.2428 q 0,-5.4369 3.80583,-9.2427 3.80582,-3.8058 9.24272,-3.8058 z m -4.24078,40.8854 h 60.67577 v -27.8369 q 0,-1.7398 -1.30485,-2.9359 -1.19612,-1.3048 -2.93593,-1.3048 h -52.19421 q -1.73981,0 -3.04466,1.3048 -1.19612,1.1961 -1.19612,2.9359 z"
       style="text-align:center;text-anchor:middle;fill:#e9e9e9;fill-opacity:0.90588235;stroke-width:1.27427268"
       id="path6405" />
    <path
       d="m 911.72672,1252.3035 q 0,-5.4369 3.80583,-9.2427 3.80582,-3.8059 9.24272,-3.8059 h 65.24276 v 78.1826 h -8.80777 v -29.5767 q -3.26214,0.4349 -4.24078,0.4349 h -28.70682 l -24.46603,29.1418 h -11.63496 l 24.57477,-29.1418 h -11.96117 q -5.4369,0 -9.24272,-3.8058 -3.80583,-3.8058 -3.80583,-9.2427 z m 65.24276,27.0757 q 1.73981,0 2.93592,-1.1961 1.30486,-1.1961 1.30486,-2.9359 v -22.9437 q 0,-1.7398 -1.30486,-2.9359 -1.19611,-1.3049 -2.93592,-1.3049 h -52.19421 q -1.73981,0 -2.93592,1.3049 -1.19612,1.1961 -1.19612,2.9359 v 22.9437 q 0,1.7398 1.19612,2.9359 1.19611,1.1961 2.93592,1.1961 z"
       style="text-align:center;text-anchor:middle;fill:#e9e9e9;fill-opacity:0.90588235;stroke-width:1.27427268"
       id="path6407" />
    <path
       d="m -76.01728,1383.8764 h -65.24276 q -1.73981,0 -3.04466,1.3048 -1.19612,1.1962 -1.19612,2.936 v 52.1942 q 0,1.7398 1.19612,3.0446 1.30485,1.1961 3.04466,1.1961 h 65.24276 v 8.8078 h -65.24276 q -5.4369,0 -9.24273,-3.8058 -3.80583,-3.8058 -3.80583,-9.2427 v -52.1942 q 0,-5.4369 3.80583,-9.2428 3.80583,-3.8058 9.24273,-3.8058 h 65.24276 z"
       style="text-align:center;text-anchor:middle;fill:#e9e9e9;fill-opacity:0.90588235;stroke-width:1.27427268"
       id="path6409" />
    <path
       d="M 0.26238034,1375.0686 H 12.332291 v 78.2913 H 3.5245185 v -68.2874 l -57.4136315,68.2874 h -12.069911 v -78.2913 h 8.807773 v 68.2874 z"
       style="text-align:center;text-anchor:middle;fill:#e9e9e9;fill-opacity:0.90588235;stroke-width:1.27427268"
       id="path6411" />
    <path
       d="M 100.68186,1383.8764 H 35.4391 q -1.739807,0 -3.044662,1.3048 -1.196118,1.1962 -1.196118,2.936 v 52.1942 q 0,1.7398 1.196118,3.0446 1.304855,1.1961 3.044662,1.1961 h 65.24276 v 8.8078 H 35.4391 q -5.436897,0 -9.242725,-3.8058 -3.805828,-3.8058 -3.805828,-9.2427 v -52.1942 q 0,-5.4369 3.805828,-9.2428 3.805828,-3.8058 9.242725,-3.8058 h 65.24276 z"
       style="text-align:center;text-anchor:middle;fill:#e9e9e9;fill-opacity:0.90588235;stroke-width:1.27427268"
       id="path6413" />
    <path
       d="m 110.74011,1375.0686 h 78.29132 v 8.8078 h -34.68741 v 69.4835 h -8.80777 v -69.4835 h -34.79614 z"
       style="text-align:center;text-anchor:middle;fill:#e9e9e9;fill-opacity:0.90588235;stroke-width:1.27427268"
       id="path6415" />
    <path
       d="m 270.53052,1375.0686 v 8.8078 h -62.63306 v 25.8796 h 50.34567 v 8.9165 h -50.34567 v 25.8796 h 62.63306 v 8.8078 h -71.44083 v -78.2913 z"
       style="text-align:center;text-anchor:middle;fill:#e9e9e9;fill-opacity:0.90588235;stroke-width:1.27427268"
       id="path6417" />
    <path
       d="m 325.01331,1413.7793 32.51264,-38.7107 h 12.06991 v 78.2913 h -8.80777 v -68.2874 l -35.77478,42.5165 -35.77478,-42.5165 v 68.2874 h -8.80778 v -78.2913 h 12.06992 z"
       style="text-align:center;text-anchor:middle;fill:#e9e9e9;fill-opacity:0.90588235;stroke-width:1.27427268"
       id="path6419" />
    <path
       d="m 392.66018,1375.0686 h 52.19421 q 5.4369,0 9.24273,3.8058 3.80583,3.8059 3.80583,9.2428 v 65.2427 h -8.80778 v -28.5981 H 388.4194 v 28.5981 h -8.80777 v -65.2427 q 0,-5.4369 3.80583,-9.2428 3.80583,-3.8058 9.24272,-3.8058 z m -4.24078,40.8855 h 60.67577 v -27.8369 q 0,-1.7398 -1.30485,-2.936 -1.19612,-1.3048 -2.93593,-1.3048 h -52.19421 q -1.7398,0 -3.04466,1.3048 -1.19612,1.1962 -1.19612,2.936 z"
       style="text-align:center;text-anchor:middle;fill:#e9e9e9;fill-opacity:0.90588235;stroke-width:1.27427268"
       id="path6421" />
    <path
       d="m 560.76735,1375.0686 h 11.30875 l -32.73012,39.1457 32.83885,39.1456 h -11.41748 l -29.14177,-34.6874 h -25.2272 v 34.6874 h -8.91651 v -78.2913 h 8.91651 v 34.6874 h 25.2272 z"
       style="text-align:center;text-anchor:middle;fill:#e9e9e9;fill-opacity:0.90588235;stroke-width:1.27427268"
       id="path6423" />
    <path
       d="m 595.05716,1375.0686 h 52.19421 q 5.43689,0 9.24272,3.8058 3.80583,3.8059 3.80583,9.2428 v 52.1942 q 0,5.4369 -3.80583,9.2427 -3.80583,3.8058 -9.24272,3.8058 h -52.19421 q -5.4369,0 -9.24273,-3.8058 -3.80583,-3.8058 -3.80583,-9.2427 v -52.1942 q 0,-5.4369 3.80583,-9.2428 3.80583,-3.8058 9.24273,-3.8058 z m 0,69.4835 h 52.19421 q 1.7398,0 2.93592,-1.1961 1.30486,-1.3048 1.30486,-3.0446 v -52.1942 q 0,-1.7398 -1.30486,-2.936 -1.19612,-1.3048 -2.93592,-1.3048 h -52.19421 q -1.73981,0 -3.04467,1.3048 -1.19611,1.1962 -1.19611,2.936 v 52.1942 q 0,1.7398 1.19611,3.0446 1.30486,1.1961 3.04467,1.1961 z"
       style="text-align:center;text-anchor:middle;fill:#e9e9e9;fill-opacity:0.90588235;stroke-width:1.27427268"
       id="path6425" />
    <path
       d="m 739.73302,1375.0686 h 8.91651 v 78.2913 h -8.91651 v -34.6874 h -60.56703 v 34.6874 h -8.80778 v -78.2913 h 8.80778 v 34.6874 h 60.56703 z"
       style="text-align:center;text-anchor:middle;fill:#e9e9e9;fill-opacity:0.90588235;stroke-width:1.27427268"
       id="path6427" />
    <path
       d="m 758.70776,1375.0686 h 78.29132 v 8.8078 h -34.6874 v 69.4835 h -8.80778 v -69.4835 h -34.79614 z"
       style="text-align:center;text-anchor:middle;fill:#e9e9e9;fill-opacity:0.90588235;stroke-width:1.27427268"
       id="path6429" />
    <path
       d="m 847.05737,1375.1773 h 65.24276 q 5.4369,0 9.24273,3.8059 3.80583,3.8058 3.80583,9.2427 v 22.9437 q 0,5.4369 -3.80583,9.2427 -3.80583,3.8059 -9.24273,3.8059 h -52.19421 q -0.97864,0 -4.24078,-0.435 v 29.5767 h -8.80777 z m 69.48354,35.9923 v -22.9437 q 0,-1.7398 -1.30485,-2.9359 -1.19612,-1.3049 -2.93593,-1.3049 h -52.19421 q -1.7398,0 -3.04466,1.3049 -1.19612,1.1961 -1.19612,2.9359 v 22.9437 q 0,1.7398 1.19612,2.9359 1.30486,1.1961 3.04466,1.1961 h 52.19421 q 1.73981,0 2.93593,-1.1961 1.30485,-1.1961 1.30485,-2.9359 z"
       style="text-align:center;text-anchor:middle;fill:#e9e9e9;fill-opacity:0.90588235;stroke-width:1.27427268"
       id="path6431" />
    <path
       d="m 948.45541,1375.0686 h 52.19419 q 5.4369,0 9.2427,3.8058 3.8059,3.8059 3.8059,9.2428 v 52.1942 q 0,5.4369 -3.8059,9.2427 -3.8058,3.8058 -9.2427,3.8058 h -52.19419 q -5.4369,0 -9.24272,-3.8058 -3.80583,-3.8058 -3.80583,-9.2427 v -52.1942 q 0,-5.4369 3.80583,-9.2428 3.80582,-3.8058 9.24272,-3.8058 z m 0,69.4835 h 52.19419 q 1.7398,0 2.9359,-1.1961 1.3049,-1.3048 1.3049,-3.0446 v -52.1942 q 0,-1.7398 -1.3049,-2.936 -1.1961,-1.3048 -2.9359,-1.3048 h -52.19419 q -1.73981,0 -3.04466,1.3048 -1.19612,1.1962 -1.19612,2.936 v 52.1942 q 0,1.7398 1.19612,3.0446 1.30485,1.1961 3.04466,1.1961 z"
       style="text-align:center;text-anchor:middle;fill:#e9e9e9;fill-opacity:0.90588235;stroke-width:1.27427268"
       id="path6433" />
    <path
       d="m 1095.1973,1375.0686 v 78.2913 h -8.9165 v -69.3748 h -27.1845 q -1.7398,0.1088 -2.7185,1.1961 -0.8699,1.0874 -1.5223,3.0447 l -22.1825,65.134 h -8.9165 l 22.1825,-65.134 q 1.9573,-5.6544 4.7845,-9.2427 2.9359,-3.5884 8.3728,-3.9146 z"
       style="text-align:center;text-anchor:middle;fill:#e9e9e9;fill-opacity:0.90588235;stroke-width:1.27427268"
       id="path6435" />
    <path
       d="m 1105.0975,1388.2259 q 0,-5.4369 3.8059,-9.2427 3.8058,-3.8059 9.2427,-3.8059 h 65.2427 v 78.1826 h -8.8077 v -29.5767 q -3.2622,0.435 -4.2408,0.435 h -28.7068 l -24.4661,29.1417 h -11.6349 l 24.5748,-29.1417 h -11.9612 q -5.4369,0 -9.2427,-3.8059 -3.8059,-3.8058 -3.8059,-9.2427 z m 65.2428,27.0757 q 1.7398,0 2.9359,-1.1961 1.3049,-1.1961 1.3049,-2.9359 v -22.9437 q 0,-1.7398 -1.3049,-2.9359 -1.1961,-1.3049 -2.9359,-1.3049 h -52.1942 q -1.7398,0 -2.9359,1.3049 -1.1962,1.1961 -1.1962,2.9359 v 22.9437 q 0,1.7398 1.1962,2.9359 1.1961,1.1961 2.9359,1.1961 z"
       style="text-align:center;text-anchor:middle;fill:#e9e9e9;fill-opacity:0.90588235;stroke-width:1.27427268"
       id="path6437" />
    <path
       d="m 302.1996,1510.991 h 71.44083 v 8.8078 h -62.63305 v 69.4835 h -8.80778 z"
       style="text-align:center;text-anchor:middle;fill:#e9e9e9;fill-opacity:0.90588235;stroke-width:1.27427268"
       id="path6439" />
    <path
       d="m 383.54068,1511.0998 h 65.24276 q 5.4369,0 9.24272,3.8058 3.80583,3.8058 3.80583,9.2427 v 22.9437 q 0,5.4369 -3.80583,9.2427 -3.80582,3.8059 -9.24272,3.8059 h -52.19421 q -0.97864,0 -4.24078,-0.435 v 29.5767 h -8.80777 z m 69.48354,35.9922 v -22.9437 q 0,-1.7398 -1.30486,-2.9359 -1.19611,-1.3049 -2.93592,-1.3049 h -52.19421 q -1.73981,0 -3.04466,1.3049 -1.19612,1.1961 -1.19612,2.9359 v 22.9437 q 0,1.7398 1.19612,2.9359 1.30485,1.1962 3.04466,1.1962 h 52.19421 q 1.73981,0 2.93592,-1.1962 1.30486,-1.1961 1.30486,-2.9359 z"
       style="text-align:center;text-anchor:middle;fill:#e9e9e9;fill-opacity:0.90588235;stroke-width:1.27427268"
       id="path6441" />
    <path
       d="m 484.9388,1510.991 h 52.19421 q 5.4369,0 9.24272,3.8059 3.80583,3.8058 3.80583,9.2427 v 65.2427 h -8.80777 v -28.598 h -60.67577 v 28.598 h -8.80777 v -65.2427 q 0,-5.4369 3.80582,-9.2427 3.80583,-3.8059 9.24273,-3.8059 z m -4.24078,40.8855 h 60.67577 v -27.8369 q 0,-1.7398 -1.30486,-2.9359 -1.19611,-1.3049 -2.93592,-1.3049 H 484.9388 q -1.73981,0 -3.04466,1.3049 -1.19612,1.1961 -1.19612,2.9359 z"
       style="text-align:center;text-anchor:middle;fill:#e9e9e9;fill-opacity:0.90588235;stroke-width:1.27427268"
       id="path6443" />
    <path
       d="m 573.28838,1510.991 h 52.19421 q 5.4369,0 9.24272,3.8059 3.80583,3.8058 3.80583,9.2427 v 65.2427 h -8.80777 v -28.598 H 569.0476 v 28.598 h -8.80777 v -65.2427 q 0,-5.4369 3.80582,-9.2427 3.80583,-3.8059 9.24273,-3.8059 z m -4.24078,40.8855 h 60.67577 v -27.8369 q 0,-1.7398 -1.30486,-2.9359 -1.19611,-1.3049 -2.93592,-1.3049 h -52.19421 q -1.73981,0 -3.04466,1.3049 -1.19612,1.1961 -1.19612,2.9359 z"
       style="text-align:center;text-anchor:middle;fill:#e9e9e9;fill-opacity:0.90588235;stroke-width:1.27427268"
       id="path6445" />
    <path
       d="m 679.25347,1510.991 h 38.81945 v 60.6758 h 8.80777 v 17.6155 h -8.80777 v -8.8077 h -60.67577 v 8.8077 h -8.80778 v -17.6155 h 8.80778 l 8.80777,-47.6272 q 1.08738,-5.4369 4.34952,-9.2427 3.26214,-3.8059 8.69903,-3.8059 z m -13.04855,60.6758 h 43.06022 v -51.868 h -30.01167 q -1.7398,0 -2.82718,1.3049 -1.08738,1.1961 -1.4136,2.9359 z"
       style="text-align:center;text-anchor:middle;fill:#e9e9e9;fill-opacity:0.90588235;stroke-width:1.27427268"
       id="path6447" />
  </g>
</svg>
